<svg width="126" height="33" viewBox="0 0 126 33" fill="none" xmlns="http://www.w3.org/2000/svg">
<path d="M0.411133 25.2988H10.2563C17.5687 25.2988 22.5386 20.7722 22.5386 14.0295C22.5386 7.25518 17.5687 2.75989 10.2563 2.75989H0.411133V25.2988ZM4.62159 21.7533V6.30539H10.0661C15.0994 6.30539 18.3285 9.37612 18.3285 14.0295C18.3285 18.6829 15.0994 21.7533 10.0661 21.7533H4.62159ZM30.421 10.6104V8.10983H26.5905V25.2988H30.6424V16.9416C30.6424 13.4595 32.5418 11.6553 35.6124 11.6553C35.8973 11.6553 36.1822 11.6869 36.562 11.7502V7.91971C33.6814 7.91971 31.5923 8.80607 30.421 10.6104ZM41.9754 5.26081C43.4948 5.26081 44.5393 4.18439 44.5393 2.75989C44.5393 1.462 43.4632 0.44908 41.9754 0.44908C40.4875 0.44908 39.4111 1.52525 39.4111 2.85479C39.4111 4.21599 40.4875 5.26081 41.9754 5.26081ZM39.9493 25.2988H43.9696V8.10983H39.9493V25.2988ZM61.4752 8.10983L55.9669 20.8355L50.6173 8.10983H46.4702L53.8144 25.2988H57.9615L65.3372 8.10983H61.4752ZM117.854 7.91971C115.353 7.91971 113.232 8.74294 111.935 10.3257V8.10983H108.104V25.2988H112.124V16.5935C112.124 13.143 114.055 11.4337 116.904 11.4337C119.5 11.4337 120.988 12.8898 120.988 15.9604V25.2988H125.008V15.454C125.008 10.2625 121.937 7.91971 117.854 7.91971Z" fill="#5712A6"/>
<path fill-rule="evenodd" clip-rule="evenodd" d="M95.8643 9.68849C93.1751 9.15065 90.8971 11.2387 90.5807 13.4217C90.201 16.1426 92.0043 18.199 94.2506 18.6419C96.9714 19.1798 99.1227 17.1549 99.5657 14.9403C100.072 12.2194 98.0473 10.1314 95.8643 9.68849ZM84.601 15.4148C84.1265 11.555 86.2146 8.29655 88.0812 6.65138C90.2326 4.75311 93.6178 3.36104 97.5092 4.27854C104.153 5.82879 107.665 13.3267 104.311 19.5277C103.742 20.6034 97.7625 29.0193 96.7501 30.538C96.4337 30.9493 95.801 32.0565 95.3897 32.2147C94.5671 32.5627 94.0923 31.4553 93.7127 30.9807L88.6506 23.6725C86.5941 20.6985 85.044 19.1797 84.601 15.4148Z" fill="#26E0FA"/>
</svg>
